<?xml version="1.0" standalone="no"?><svg xmlns="http://www.w3.org/2000/svg" viewBox="0 0 1440 320"><path fill="#171717" fill-opacity="1" d="M0,192L24,186.7C48,181,96,171,144,170.7C192,171,240,181,288,170.7C336,160,384,128,432,112C480,96,528,96,576,128C624,160,672,224,720,234.7C768,245,816,203,864,192C912,181,960,203,1008,213.3C1056,224,1104,224,1152,208C1200,192,1248,160,1296,154.7C1344,149,1392,171,1416,181.3L1440,192L1440,320L1416,320C1392,320,1344,320,1296,320C1248,320,1200,320,1152,320C1104,320,1056,320,1008,320C960,320,912,320,864,320C816,320,768,320,720,320C672,320,624,320,576,320C528,320,480,320,432,320C384,320,336,320,288,320C240,320,192,320,144,320C96,320,48,320,24,320L0,320Z"></path></svg>