<?xml version="1.0" standalone="no"?><svg xmlns="http://www.w3.org/2000/svg" viewBox="0 0 1440 320"><path fill="#fff" fill-opacity="1" d="M0,128L18.5,122.7C36.9,117,74,107,111,128C147.7,149,185,203,222,208C258.5,213,295,171,332,154.7C369.2,139,406,149,443,144C480,139,517,117,554,133.3C590.8,149,628,203,665,218.7C701.5,235,738,213,775,181.3C812.3,149,849,107,886,85.3C923.1,64,960,64,997,74.7C1033.8,85,1071,107,1108,128C1144.6,149,1182,171,1218,176C1255.4,181,1292,171,1329,160C1366.2,149,1403,139,1422,133.3L1440,128L1440,320L1421.5,320C1403.1,320,1366,320,1329,320C1292.3,320,1255,320,1218,320C1181.5,320,1145,320,1108,320C1070.8,320,1034,320,997,320C960,320,923,320,886,320C849.2,320,812,320,775,320C738.5,320,702,320,665,320C627.7,320,591,320,554,320C516.9,320,480,320,443,320C406.2,320,369,320,332,320C295.4,320,258,320,222,320C184.6,320,148,320,111,320C73.8,320,37,320,18,320L0,320Z"></path></svg>